# xmcd
#
# Track frame offsets: 
#        150
#        27270
#        49572
#        70662
#        89655
#        108630
#        134085
#        156032
#        172157
#        200030
#
# Disc length: 2934 seconds
#
# Revision: 5
# Processed by: cddbd v1.5.2PL0 Copyright (c) Steve Scherf et al.
# Submitted via: ExactAudioCopy v1.0b3
#
DISCID=920b740a
DTITLE=Various Artist - Ky Niem
DYEAR=1993
DGENRE=
TTITLE0=Elvis Phuong - Ao anh sut chi duong ta
TTITLE1=Ai Van, Duy Quang - Toc mai soi van soi dai
TTITLE2=Thai Hien - Ky niem
TTITLE3=Thai Thao - Tuoi ngoc
TTITLE4=Duy Trac - Thuong tinh ca
TTITLE5=Dalena - Giot mua tren la
TTITLE6=Le Quyen - Ngam ngui
TTITLE7=Huong Lan - Di dau cho thiep theo cung
TTITLE8=Nhu Mai - Nho nguoi thuong binh
TTITLE9=Thai Thanh - Tinh hoai huong
EXTD=
EXTT0=
EXTT1=
EXTT2=
EXTT3=
EXTT4=
EXTT5=
EXTT6=
EXTT7=
EXTT8=
EXTT9=
PLAYORDER=
